<?xml version="1.0" encoding="UTF-8" standalone="no"?>
<!-- Created with Inkscape (http://www.inkscape.org/) -->

<svg
   xmlns:dc="http://purl.org/dc/elements/1.1/"
   xmlns:cc="http://creativecommons.org/ns#"
   xmlns:rdf="http://www.w3.org/1999/02/22-rdf-syntax-ns#"
   xmlns:svg="http://www.w3.org/2000/svg"
   xmlns="http://www.w3.org/2000/svg"
   xmlns:sodipodi="http://sodipodi.sourceforge.net/DTD/sodipodi-0.dtd"
   xmlns:inkscape="http://www.inkscape.org/namespaces/inkscape"
   width="210mm"
   height="297mm"
   viewBox="0 0 210 297"
   version="1.1"
   id="svg8"
   inkscape:version="0.92.3 (2405546, 2018-03-11)"
   sodipodi:docname="icon_black.svg">
  <defs
     id="defs2" />
  <sodipodi:namedview
     id="base"
     pagecolor="#ffffff"
     bordercolor="#666666"
     borderopacity="1.0"
     inkscape:pageopacity="0.0"
     inkscape:pageshadow="2"
     inkscape:zoom="0.25"
     inkscape:cx="-212.12872"
     inkscape:cy="724.07644"
     inkscape:document-units="mm"
     inkscape:current-layer="svg8"
     showgrid="false" />
  <metadata
     id="metadata5">
    <rdf:RDF>
      <cc:Work
         rdf:about="">
        <dc:format>image/svg+xml</dc:format>
        <dc:type
           rdf:resource="http://purl.org/dc/dcmitype/StillImage" />
        <dc:title />
      </cc:Work>
    </rdf:RDF>
  </metadata>
  <g
     inkscape:label="Layer 1"
     inkscape:groupmode="layer"
     id="layer1"
     inkscape:export-xdpi="99.696182"
     inkscape:export-ydpi="99.696182"
     transform="translate(-116.74333,-45.649635)">
    <g
       id="g4913"
       transform="matrix(0.26458333,0,0,0.26458333,-17.182164,-62.272575)">
      <g
         id="g4779"
         style="fill-opacity:1;fill:#e20000">
        <g
           id="XMLID_2_"
           style="fill-opacity:1;fill:#e20000">
          <g
             id="g4774"
             style="fill-opacity:1;fill:#e20000">
            <path
               id="path4768"
               d="m 1677.38,1143.34 c 41.27,27.01 59.71,88.03 44.11,135.07 -16.81,50.68 -62.88,82.21 -113.65,85.79 -90.87,6.43 -144.57,-73.54 -125.9,-154.08 0,-51.14 -0.47,-102.28 0.19,-153.42 0.28,-21.43 10.57,-28.04 27.39,-17.84 56.27,34.29 112.76,68.39 167.86,104.48 z"
               class="st0"
               inkscape:connector-curvature="0"
               style="fill-opacity:1;fill:#e20000" />
            <path
               id="path4770"
               d="m 1686.84,756.66 c 2,8.06 3.26,16.35 4.84,24.55 -0.14,79.51 -74.34,134.56 -143.22,121.75 -72.71,-13.55 -110.2,-57.34 -108.99,-131.77 0.89,-54.26 3.31,-108.48 5.26,-162.69 0.23,-6.1 2.1,-12.16 3.12,-18.21 2.7,-15.93 8.1,-21.57 24.59,-11.18 45.46,28.55 90.87,57.62 138.33,82.58 40.34,21.2 65.22,51.75 76.07,94.97 z"
               class="st0"
               inkscape:connector-curvature="0"
               style="fill-opacity:1;fill:#e20000" />
            <path
               id="path4772"
               d="m 1229.32,41.29 c 34.61,-0.33 53.61,23.66 43.78,57.24 -28.78,98.46 -58.22,196.74 -87.42,295.11 -14.81,49.84 -29.67,99.72 -43.55,146.34 22.03,15.93 47.51,27.53 62.51,47.09 16.35,21.33 10.11,49.46 -4.15,75.13 35.77,11.74 63.2,33.4 67.86,70.89 2.75,22.59 -1.91,47.32 -8.43,69.54 -41.92,143.18 -85.61,285.84 -128.13,428.88 -29.02,97.48 -57.15,195.3 -85.61,292.97 -1.68,5.68 -2.65,11.6 -3.54,15.51 18.44,9.97 37.21,16.3 50.86,28.41 22.73,20.26 25.48,54.35 10.76,80.16 -14.67,25.8 -44.99,37.77 -77.69,29.72 -36.66,-9.04 -73.13,-18.77 -113.04,-29.06 -10.43,31.44 -21.84,63.62 -31.81,96.27 -11.18,36.56 -20.12,73.82 -31.91,110.2 -5.26,16.12 -4.1,22.59 14.25,26.46 31.58,6.61 48.11,29.9 52.4,60.5 3.96,28.18 -9.08,54.17 -34.28,61.48 -25.24,7.36 -55.66,6.89 -81.46,0.47 -69.07,-17.28 -136.94,-39.59 -205.26,-59.94 -23.75,-7.08 -47.46,-14.35 -71.17,-21.61 -46.11,-14.11 -68.05,-49.23 -55.71,-89.15 12.06,-38.98 49.23,-56.92 93.43,-45.04 4.42,1.16 8.8,2.38 16.16,4.38 22.17,-74.38 44.15,-148.07 66.93,-224.59 -26.32,-8.01 -51.28,-15.51 -76.15,-23.2 -14.81,-4.56 -30,-8.24 -44.2,-14.25 -33.77,-14.35 -49.6,-49.65 -39.12,-84.58 9.87,-32.93 45.55,-53.38 81.04,-46.3 8.34,1.63 16.53,3.87 28.5,6.71 20.91,-70.1 41.55,-138.8 61.9,-207.59 53.56,-180.72 106.89,-361.53 160.55,-542.25 18.86,-63.44 55.24,-86.31 122.03,-76.11 4.66,-25.99 11.74,-53.98 39.26,-62.83 22.87,-7.31 48.58,-5.73 77.97,-8.62 13.04,-43.6 28.09,-93.71 42.94,-143.88 28.32,-95.53 56.45,-191.15 84.86,-286.68 8.86,-29.63 18.6,-37.54 44.64,-37.78 z"
               class="st0"
               inkscape:connector-curvature="0"
               style="fill-opacity:1;fill:#e20000" />
          </g>
          <g
             id="g4776"
             style="fill-opacity:1;fill:#e20000" />
        </g>
      </g>
      <g
         id="g4794"
         style="fill:#065eff;fill-opacity:1">
        <g
           id="g4792"
           style="fill:#065eff;fill-opacity:1">
          <g
             id="XMLID_1_"
             style="fill:#065eff;fill-opacity:1">
            <g
               id="g4787"
               style="fill:#065eff;fill-opacity:1">
              <path
                 id="path4781"
                 d="m 1364.94,1039.76 c 7.31,1.44 15.6,1.07 21.75,4.56 48.91,28.04 97.53,56.73 146.11,85.42 46.06,27.2 70.47,67.72 66.84,121.24 -3.12,45.74 -27.39,80.3 -69.26,99.95 -14.95,7.03 -32.28,9.04 -48.49,13.32 -88.03,-0.51 -136.56,-75.78 -128.09,-157.43 4.98,-48.25 4.8,-97.02 7.27,-145.51 0.38,-7.21 2.52,-14.38 3.87,-21.55 z"
                 class="st1"
                 inkscape:connector-curvature="0"
                 style="fill:#065eff;fill-opacity:1" />
              <path
                 id="path4783"
                 d="m 941.33,1552.94 c 42.52,13.13 58.13,62.27 34.05,98.56 -8.52,12.81 -19.89,16.02 -36.14,18.77 -49,8.34 -92.5,-8.15 -136.89,-21.75 -17.84,-5.5 -19.7,5.96 -23.01,17.19 -18.77,63.11 -36.98,126.41 -56.45,189.29 -5.36,17.23 0.42,23.15 16.21,28.04 41.5,12.9 61.16,52.31 46.11,89.38 -12.34,30.32 -40.89,44.11 -79.46,34.65 -44.95,-11.09 -89.33,-24.59 -133.81,-37.54 -55.47,-16.16 -110.62,-33.54 -166.28,-49.09 -29.02,-8.06 -51.7,-22.08 -58.03,-53.1 -10.15,-49.84 28.92,-87.28 78.81,-75.08 21.47,5.26 31.86,0.79 38.15,-21.98 18.72,-67.72 39.78,-134.75 61.06,-205.73 -26.08,-7.78 -49.56,-14.58 -72.94,-21.75 -16.21,-4.94 -32.7,-9.32 -48.39,-15.65 -35.21,-14.25 -49.56,-43.64 -39.36,-78.11 9.87,-33.4 38.89,-49.56 75.97,-42.38 28.64,5.54 33.02,2.84 41.31,-25.24 46.67,-158.55 93.2,-317.19 140.2,-475.64 25.43,-85.84 52.17,-171.31 77.18,-257.24 13.83,-47.55 52.07,-71.22 100.51,-64.56 14.35,1.96 20.17,1.16 22.64,-15.37 6.24,-42.15 38.52,-62.41 81.32,-51.7 20.59,5.12 30.37,0.65 36.66,-21.05 40.48,-139.45 82.25,-278.53 123.57,-417.75 8.85,-29.76 27.34,-41.17 55.71,-34.37 24.41,5.87 34.19,28.92 24.92,60.32 -34.89,118.12 -69.96,236.14 -104.98,354.22 -7.03,23.75 -15.14,47.28 -20.59,71.36 -1.4,6.29 3.45,18.54 8.76,21.01 60.08,28.41 68.47,46.02 48.53,109.78 2.52,1.91 5.22,4.61 8.43,6.15 50.95,24.03 69.63,63.58 53.52,118.3 -52.86,178.99 -106.38,357.85 -159.57,536.75 -19,63.86 -36.75,128.09 -57.15,191.48 -7.26,22.36 -5.02,32.28 19.43,39.83 z"
                 class="st1"
                 inkscape:connector-curvature="0"
                 style="fill:#065eff;fill-opacity:1" />
              <path
                 id="path4785"
                 d="m 1513.94,682.09 c 34.05,22.45 49.09,59.01 49.46,100.37 -0.28,68.7 -51.89,121.52 -123.71,120.68 -58.31,-0.7 -115.32,-41.73 -118.49,-110.95 -3.07,-67.07 2.14,-134.51 4.1,-201.82 0.42,-13.37 8.29,-15.74 19.05,-9.41 56.74,33.37 114.73,64.9 169.59,101.13 z"
                 class="st1"
                 inkscape:connector-curvature="0"
                 style="fill:#065eff;fill-opacity:1" />
            </g>
            <g
               id="g4789"
               style="fill:#065eff;fill-opacity:1" />
          </g>
        </g>
      </g>
      <g
         id="Layer_3"
         style="fill:#e20000;fill-opacity:1">
        <g
           id="g4800"
           style="fill:#e20000;fill-opacity:1">
          <g
             id="g4798"
             style="fill:#e20000;fill-opacity:1">
            <path
               id="path4796"
               d="m 849.48,1648.8 c -1.5,4.59 -2.1,9.29 -1.8,14.11 0.1,1.6 2.56,2.14 2.95,0.4 0.76,-3.44 1.32,-6.91 1.7,-10.41 0.21,-1.92 -2.79,-1.9 -3,0 -0.35,3.24 -0.89,6.44 -1.59,9.61 0.98,0.13 1.96,0.27 2.95,0.4 -0.28,-4.56 0.27,-8.97 1.69,-13.31 0.59,-1.84 -2.3,-2.63 -2.9,-0.8 z"
               class="st0"
               inkscape:connector-curvature="0"
               style="fill:#e20000;fill-opacity:1" />
          </g>
        </g>
        <g
           id="g4806"
           style="fill:#e20000;fill-opacity:1">
          <g
             id="g4804"
             style="fill:#e20000;fill-opacity:1">
            <path
               id="path4802"
               d="m 867.31,1662.05 c -1.65,-2.65 0.05,-5.96 -1.65,-8.79 -0.83,-1.37 -2.63,-0.65 -2.8,0.76 -0.57,5.02 -1.89,9.66 -4.02,14.24 0.91,0.39 1.83,0.77 2.74,1.16 1.11,-5.42 3.08,-11.98 2.05,-17.52 -0.29,-1.53 -2.49,-1.32 -2.89,0 -1.06,3.45 -2.12,6.89 -3.18,10.34 0.96,0.27 1.93,0.53 2.89,0.8 0.2,-1.24 0.44,-3.26 1.13,-4.35 1.02,-0.78 2.04,-1.56 3.06,-2.34 0.2,1.3 0.36,2.6 0.49,3.91 0.32,2.74 0.65,5.38 1.42,8.05 0.42,1.46 2.44,1.39 2.89,0 1.28,-3.94 1.07,-8.21 3.63,-11.66 -0.93,-0.25 -1.86,-0.5 -2.8,-0.76 -0.05,4.89 -1.21,11.18 0.41,15.84 0.49,1.41 2.41,1.43 2.89,0 1.31,-3.85 1.71,-8.06 4.36,-11.31 -0.85,-0.35 -1.71,-0.71 -2.56,-1.06 0.21,4.98 0.04,9.93 -0.17,14.91 -0.06,1.41 2.2,2.15 2.8,0.76 1.57,-3.69 1.92,-8.1 4.55,-11.24 -0.85,-0.35 -1.71,-0.71 -2.56,-1.06 0.18,2.89 -0.21,10.03 2.88,11.58 0.58,0.29 1.34,0.27 1.82,-0.23 2.66,-2.84 3.34,-8.35 4.14,-12.04 -0.98,-0.13 -1.96,-0.27 -2.95,-0.4 -0.1,2.18 -0.21,4.37 -0.31,6.55 -0.07,1.43 2.17,2.12 2.8,0.76 1.04,-2.29 2.08,-4.57 3.13,-6.86 -0.91,-0.39 -1.83,-0.77 -2.74,-1.16 -0.2,1.43 -0.46,2.81 -0.79,4.22 -0.45,1.94 2.17,2.53 2.89,0.8 0.38,-0.9 0.75,-1.8 1.13,-2.7 -0.98,-0.13 -1.96,-0.27 -2.95,-0.4 -0.06,1.17 -0.26,2.3 -0.62,3.41 -0.51,1.88 2.26,2.6 2.89,0.8 0.31,-1.07 0.83,-2.02 1.58,-2.83 -0.93,-0.25 -1.86,-0.5 -2.8,-0.76 0.21,1.7 0.12,3.4 -0.28,5.08 0.98,0.13 1.96,0.27 2.95,0.4 0.12,-2.07 0.44,-3.57 1.1,-5.47 -0.96,-0.27 -1.93,-0.53 -2.89,-0.8 -0.28,1.42 -0.56,2.84 -0.84,4.26 -0.38,1.91 2.22,2.6 2.89,0.8 0.62,-1.68 1.31,-2.84 2.36,-4.23 -0.93,-0.25 -1.86,-0.5 -2.8,-0.76 0,1.52 -0.16,3.02 -0.5,4.51 0.98,0.13 1.96,0.27 2.95,0.4 0.17,-1.51 0.34,-3.01 0.51,-4.52 -1,0 -2,0 -3,0 -0.07,1.24 -0.2,2.48 -0.4,3.71 -0.27,1.85 2.4,2.72 2.89,0.8 0.23,-1.31 0.72,-2.52 1.47,-3.63 -0.93,-0.25 -1.86,-0.5 -2.8,-0.76 -0.11,0.85 -0.17,1.69 -0.2,2.55 -0.08,1.52 2.07,2 2.8,0.76 0.36,-0.62 0.72,-1.23 1.08,-1.85 -0.93,-0.25 -1.86,-0.5 -2.8,-0.76 0.13,1.41 -0.07,2.76 -0.58,4.06 0.98,0.13 1.96,0.27 2.95,0.4 0.07,-0.9 0.14,-1.8 0.21,-2.69 0.31,-1.86 -2.4,-2.7 -2.89,-0.8 -0.15,0.56 -0.29,1.12 -0.44,1.68 -0.43,1.64 1.86,2.62 2.74,1.16 0.39,-0.72 0.84,-1.4 1.36,-2.03 -0.86,0 -1.73,0 -2.59,0 0.14,0.3 0.28,0.6 0.42,0.9 0.3,0.65 1.07,0.78 1.69,0.69 2.69,-0.41 2.67,-2.9 1.46,-4.84 -0.67,-1.09 -2.39,-0.91 -2.74,0.36 -0.78,2.8 -1.56,5.6 -2.34,8.4 -0.49,1.76 1.77,2.43 2.74,1.16 0.75,-0.78 1.29,-1.7 1.61,-2.73 -0.91,-0.39 -1.83,-0.77 -2.74,-1.16 -0.2,0.75 -0.4,1.49 -0.6,2.24 -0.51,1.9 2.22,2.57 2.89,0.8 0.38,-1 0.75,-1.99 1.13,-2.99 0.68,-1.81 -2.22,-2.59 -2.89,-0.8 -0.38,1 -0.75,1.99 -1.13,2.99 0.96,0.27 1.93,0.53 2.89,0.8 0.2,-0.75 0.4,-1.49 0.6,-2.24 0.42,-1.58 -2.04,-2.76 -2.74,-1.16 -0.32,1.04 -0.86,1.95 -1.61,2.73 0.91,0.39 1.83,0.77 2.74,1.16 0.78,-2.8 1.56,-5.6 2.34,-8.4 -0.91,0.12 -1.83,0.24 -2.74,0.36 0.11,0.15 0.22,0.29 0.33,0.44 0.56,0.23 1.13,0.46 1.69,0.69 -0.14,-0.3 -0.28,-0.6 -0.42,-0.9 -0.53,-1.13 -1.99,-0.81 -2.59,0 -0.52,0.63 -0.97,1.31 -1.36,2.03 0.91,0.39 1.83,0.77 2.74,1.16 0.15,-0.56 0.29,-1.12 0.44,-1.68 -0.96,-0.27 -1.93,-0.53 -2.89,-0.8 -0.26,1.54 -0.31,1.93 -0.32,3.49 -0.01,1.71 2.46,2.02 2.95,0.4 0.5,-1.68 0.7,-3.12 0.68,-4.86 -0.01,-1.48 -2.04,-2.05 -2.8,-0.76 -0.36,0.62 -0.72,1.23 -1.08,1.85 0.93,0.25 1.86,0.5 2.8,0.76 0.02,-0.85 0.09,-1.7 0.2,-2.55 0.16,-1.53 -2.1,-1.97 -2.8,-0.76 -0.82,1.43 -1.36,2.74 -1.77,4.35 0.96,0.27 1.93,0.53 2.89,0.8 0.22,-1.5 0.39,-2.99 0.5,-4.51 0.15,-1.95 -2.79,-1.88 -3,0 -0.17,1.51 -0.34,3.01 -0.51,4.52 -0.19,1.67 2.64,2.06 2.95,0.4 0.33,-1.78 0.53,-3.49 0.6,-5.31 0.06,-1.63 -1.98,-1.84 -2.8,-0.76 -1.18,1.56 -1.99,3.13 -2.66,4.94 0.96,0.27 1.93,0.53 2.89,0.8 0.28,-1.42 0.56,-2.84 0.84,-4.26 0.37,-1.89 -2.26,-2.63 -2.89,-0.8 -0.71,2.08 -1.08,4.08 -1.2,6.27 -0.09,1.67 2.64,2.07 2.95,0.4 0.37,-2.03 0.51,-3.81 0.39,-5.88 -0.09,-1.58 -1.91,-1.92 -2.8,-0.76 -0.88,1.16 -1.4,2.19 -1.88,3.55 0.96,0.27 1.93,0.53 2.89,0.8 0.38,-1.41 0.6,-2.75 0.73,-4.21 0.16,-1.84 -2.35,-1.81 -2.95,-0.4 -0.38,0.9 -0.75,1.8 -1.13,2.7 0.96,0.27 1.93,0.53 2.89,0.8 0.33,-1.41 0.59,-2.79 0.79,-4.22 0.21,-1.5 -1.96,-2.86 -2.74,-1.16 -1.04,2.29 -2.08,4.57 -3.13,6.86 0.93,0.25 1.86,0.5 2.8,0.76 0.1,-2.18 0.21,-4.37 0.31,-6.55 0.08,-1.67 -2.59,-2.06 -2.95,-0.4 -0.65,2.98 -1.23,8.44 -3.37,10.72 0.61,-0.08 1.21,-0.16 1.82,-0.23 -1.49,-0.75 -1.3,-7.37 -1.4,-8.99 -0.07,-1.18 -1.66,-2.13 -2.56,-1.06 -2.94,3.51 -3.27,7.75 -5.01,11.85 0.93,0.25 1.86,0.5 2.8,0.76 0.22,-4.97 0.38,-9.93 0.17,-14.91 -0.05,-1.18 -1.69,-2.14 -2.56,-1.06 -3.06,3.76 -3.61,8.16 -5.13,12.63 0.96,0 1.93,0 2.89,0 -1.5,-4.32 -0.35,-10.5 -0.3,-15.04 0.02,-1.61 -1.96,-1.88 -2.8,-0.76 -2.74,3.69 -2.56,8.15 -3.93,12.37 0.96,0 1.93,0 2.89,0 -1.12,-3.93 -1.13,-7.97 -1.91,-11.95 -0.32,-1.62 -0.61,-3.36 -2.37,-3.79 -4.92,-1.18 -7.11,7.48 -7.6,10.47 -0.31,1.87 2.31,2.68 2.89,0.8 1.06,-3.45 2.12,-6.89 3.18,-10.34 -0.96,0 -1.93,0 -2.89,0 0.89,4.78 -1.07,11.17 -2.05,15.92 -0.32,1.56 1.98,2.79 2.74,1.16 2.35,-5.06 3.79,-10.21 4.43,-15.75 -0.93,0.25 -1.86,0.5 -2.8,0.76 1.68,2.79 -0.11,5.95 1.65,8.79 1.06,1.6 3.66,0.09 2.63,-1.55 z"
               class="st0"
               inkscape:connector-curvature="0"
               style="fill:#e20000;fill-opacity:1" />
          </g>
        </g>
        <path
           id="path4808"
           d="m 905.79,1672.41 c 0,0 25.21,0 27.61,-1.18 5.28,-2.6 -27.33,-11.91 -27.33,-11.91 l -6.66,2.19 -2.66,7.12 v 4.66 z"
           class="st2"
           inkscape:connector-curvature="0"
           style="fill:#e20000;stroke:#e20000;stroke-miterlimit:10;fill-opacity:1" />
        <polygon
           id="polygon4810"
           points="925.51,1665.7 929.36,1668.64 924.7,1668.64 920.04,1668.64 910.73,1668.64 906.07,1668.64 901.41,1668.64 901.41,1663.98 901.78,1663.81 909.38,1660.28 920.04,1663.98 "
           class="st2"
           style="fill:#e20000;stroke:#e20000;stroke-miterlimit:10;fill-opacity:1" />
        <polyline
           id="polyline4812"
           points="906.54,1663.57 910.73,1663.98 915.39,1663.98 915.39,1668.64 906.07,1668.64 906.07,1663.98    908.4,1664.86 910.73,1663.98 910.73,1668.64  "
           class="st2"
           style="fill:#e20000;stroke:#e20000;stroke-miterlimit:10;fill-opacity:1" />
      </g>
      <g
         id="Layer_4"
         style="fill:#e20000;fill-opacity:1">
        <g
           id="g4819"
           style="fill:#e20000;fill-opacity:1">
          <g
             id="g4817"
             style="fill:#e20000;fill-opacity:1">
            <path
               id="path4815"
               d="m 846.72,1663.49 c 2.6,-0.47 4.97,-1.82 6.73,-3.79 1.11,-1.25 -0.28,-3.22 -1.82,-2.36 -1.88,1.06 -3.7,2.21 -5.47,3.45 0.73,0.56 1.47,1.13 2.2,1.69 0.24,-0.76 0.52,-1.48 0.88,-2.19 0.86,-1.72 -1.72,-3.24 -2.59,-1.51 -0.47,0.94 -0.87,1.91 -1.18,2.91 -0.37,1.19 1.12,2.45 2.2,1.69 1.77,-1.24 3.59,-2.39 5.47,-3.45 -0.61,-0.79 -1.21,-1.57 -1.82,-2.36 -1.45,1.63 -3.26,2.63 -5.4,3.02 -1.9,0.35 -1.09,3.24 0.8,2.9 z"
               class="st0"
               inkscape:connector-curvature="0"
               style="fill:#e20000;fill-opacity:1" />
          </g>
        </g>
        <g
           id="g4825"
           style="fill:#e20000;fill-opacity:1">
          <g
             id="g4823"
             style="fill:#e20000;fill-opacity:1">
            <path
               id="path4821"
               d="m 851.69,1662.49 c 1.75,-6.74 4.72,-12.88 7.85,-19.07 -3.11,-0.84 -6.21,-1.68 -9.32,-2.52 -0.64,7.97 -1.27,15.93 -1.91,23.9 3.33,0 6.67,0 10,0 -0.04,-1.79 -0.08,-3.58 -0.12,-5.37 -0.14,-6.42 -10.15,-6.45 -10,0 0.04,1.79 0.08,3.58 0.12,5.37 0.15,6.51 9.49,6.35 10,0 0.64,-7.97 1.27,-15.93 1.91,-23.9 0.39,-4.92 -7.13,-6.85 -9.32,-2.52 -3.5,6.93 -6.9,13.91 -8.86,21.45 -1.61,6.23 8.03,8.89 9.65,2.66 z"
               class="st0"
               inkscape:connector-curvature="0"
               style="fill:#e20000;fill-opacity:1" />
          </g>
        </g>
        <g
           id="g4831"
           style="fill:#e20000;fill-opacity:1">
          <g
             id="g4829"
             style="fill:#e20000;fill-opacity:1">
            <path
               id="path4827"
               d="m 851.23,1649.58 c 0.68,4.96 -0.05,9.73 -1.65,14.44 3.21,0.89 6.43,1.77 9.64,2.66 1.4,-6.11 3,-12.17 4.79,-18.17 -3.27,-0.44 -6.55,-0.89 -9.82,-1.33 0.03,5.65 -0.35,11.23 -1.3,16.81 -1.06,6.24 8.3,9.03 9.64,2.66 1.53,-7.3 2.42,-14.7 3.26,-22.11 -3.27,0.44 -6.55,0.89 -9.82,1.33 1.71,5.73 1.16,12.46 0.86,18.36 -0.28,5.55 8.79,6.92 9.82,1.33 0.78,-4.27 0.92,-10.01 3.28,-13.72 -3.11,-0.84 -6.21,-1.68 -9.32,-2.52 0.07,4.46 -0.68,8.65 -1.59,13 -1.3,6.27 8.25,8.97 9.64,2.66 0.76,-3.46 1.51,-6.94 3.01,-10.17 -3.05,-0.4 -6.09,-0.8 -9.14,-1.19 0.64,3.89 0.79,7.76 0.65,11.69 -0.19,5.53 8.78,6.94 9.82,1.33 0.71,-3.85 1.4,-7.78 3,-11.37 -3.11,-0.84 -6.21,-1.68 -9.32,-2.52 0.2,3.9 0.18,7.77 -0.03,11.67 -0.31,5.54 8.89,6.94 9.82,1.33 0.67,-4.02 1.34,-8.05 2,-12.07 -3.27,-0.44 -6.55,-0.89 -9.82,-1.33 0.55,6.43 -1.12,12.73 -0.86,19.16 0.18,4.48 7.22,7.41 9.32,2.52 2.59,-6.03 3.48,-12.76 6.54,-18.57 -2.88,0 -5.76,0 -8.63,0 -1.01,-1.72 -0.17,0.8 -0.18,1.94 -0.01,1.57 -0.04,3.15 -0.08,4.72 -0.08,3.15 -0.23,6.29 -0.41,9.43 -0.32,5.54 8.85,6.92 9.82,1.33 0.95,-5.48 2.15,-10.9 3.6,-16.27 -3.27,-0.44 -6.55,-0.89 -9.82,-1.33 -0.31,4.92 -1.31,9.83 -2.05,14.71 -0.94,6.19 7.91,9.03 9.64,2.66 1.22,-4.46 1.89,-9.87 4.17,-13.92 -3.11,-0.84 -6.21,-1.68 -9.32,-2.52 0.17,4.15 0.33,8.3 0.5,12.45 0.21,5.33 8.92,7.16 9.82,1.33 0.66,-4.26 1.56,-8.43 2.73,-12.58 -3.21,0 -6.43,0 -9.64,0 0.86,4.13 -0.3,8.5 -0.28,12.68 0.03,6.58 9.3,6.25 10,0 0.46,-4.15 1.48,-8.13 2.84,-12.07 -3.27,-0.44 -6.55,-0.89 -9.82,-1.33 0.21,2.66 0.42,5.31 0.63,7.97 0.34,4.37 7.15,7.53 9.32,2.52 1.24,-2.87 2.23,-5.74 3.07,-8.76 -3.27,-0.44 -6.55,-0.89 -9.82,-1.33 -0.3,4.29 -1.2,8.3 -2.57,12.37 -2.07,6.11 7.59,8.73 9.64,2.66 1.66,-4.9 2.57,-9.88 2.93,-15.03 0.4,-5.72 -8.33,-6.65 -9.82,-1.33 -0.6,2.15 -1.17,4.32 -2.06,6.37 3.11,0.84 6.21,1.68 9.32,2.52 -0.21,-2.66 -0.42,-5.31 -0.63,-7.97 -0.44,-5.62 -7.94,-6.79 -9.82,-1.33 -1.66,4.81 -2.63,9.68 -3.2,14.73 3.33,0 6.67,0 10,0 -0.02,-5.23 1,-10.14 -0.08,-15.34 -1.03,-4.97 -8.37,-4.55 -9.64,0 -1.17,4.15 -2.07,8.32 -2.73,12.58 3.27,0.44 6.55,0.89 9.82,1.33 -0.17,-4.15 -0.33,-8.3 -0.5,-12.45 -0.19,-4.81 -6.8,-7 -9.32,-2.52 -2.77,4.91 -3.71,10.91 -5.18,16.31 3.21,0.89 6.43,1.77 9.64,2.66 0.88,-5.76 2.04,-11.55 2.41,-17.37 0.35,-5.69 -8.38,-6.7 -9.82,-1.33 -1.45,5.37 -2.64,10.79 -3.6,16.27 3.27,0.44 6.55,0.89 9.82,1.33 0.24,-4.08 0.41,-8.17 0.47,-12.26 0.05,-3.06 0.44,-6.15 -1.16,-8.88 -1.84,-3.13 -6.86,-3.37 -8.63,0 -3.12,5.91 -3.93,12.49 -6.54,18.57 3.11,0.84 6.21,1.68 9.32,2.52 -0.27,-6.43 1.41,-12.73 0.86,-19.16 -0.44,-5.17 -8.83,-7.3 -9.82,-1.33 -0.67,4.02 -1.34,8.05 -2,12.07 3.27,0.44 6.55,0.89 9.82,1.33 0.22,-3.9 0.23,-7.77 0.03,-11.67 -0.23,-4.49 -7.14,-7.39 -9.32,-2.52 -2,4.46 -3.13,8.97 -4.01,13.76 3.27,0.44 6.55,0.89 9.82,1.33 0.17,-4.85 -0.23,-9.57 -1.01,-14.35 -0.68,-4.13 -7.38,-4.96 -9.14,-1.19 -1.89,4.06 -3.06,8.19 -4.02,12.55 3.21,0.89 6.43,1.77 9.64,2.66 1.08,-5.18 2.03,-10.35 1.94,-15.66 -0.08,-5.05 -6.67,-6.68 -9.32,-2.52 -2.93,4.61 -3.32,10.86 -4.28,16.11 3.27,0.44 6.55,0.89 9.82,1.33 0.35,-6.84 0.77,-14.38 -1.21,-21.02 -1.71,-5.71 -9.21,-4.07 -9.82,1.33 -0.74,6.53 -1.55,13.02 -2.9,19.45 3.21,0.89 6.43,1.77 9.64,2.66 1.09,-6.46 1.69,-12.91 1.65,-19.46 -0.03,-5.68 -8.21,-6.74 -9.82,-1.33 -1.79,6.01 -3.39,12.06 -4.79,18.17 -1.44,6.31 7.57,8.74 9.64,2.66 2.22,-6.52 2.58,-12.97 1.65,-19.75 -0.85,-6.37 -10.49,-3.67 -9.63,2.63 z"
               class="st0"
               inkscape:connector-curvature="0"
               style="fill:#e20000;fill-opacity:1" />
          </g>
        </g>
        <g
           id="g4837"
           style="fill:#e20000;fill-opacity:1">
          <g
             id="g4835"
             style="fill:#e20000;fill-opacity:1">
            <path
               id="path4833"
               d="m 898.41,1668.2 c 4.07,-1.86 10.65,-1 15,-0.76 5.07,0.28 9.95,1.41 14.55,3.58 5.79,2.72 10.87,-5.9 5.05,-8.63 -6.28,-2.95 -12.67,-4.57 -19.6,-4.94 -6.66,-0.36 -13.88,-0.69 -20.04,2.13 -5.85,2.66 -0.77,11.28 5.04,8.62 z"
               class="st0"
               inkscape:connector-curvature="0"
               style="fill:#e20000;fill-opacity:1" />
          </g>
        </g>
        <g
           id="g4843"
           style="fill:#e20000;fill-opacity:1">
          <g
             id="g4841"
             style="fill:#e20000;fill-opacity:1">
            <path
               id="path4839"
               d="m 927.87,1662.17 c -6.32,0.04 -12.64,0.09 -18.96,0.16 -4.07,0.05 -10.97,-1.32 -14.01,2.12 -4.26,4.8 2.79,11.9 7.07,7.07 -1.64,1.84 3.82,0.85 5.05,0.84 2.21,-0.03 4.42,-0.05 6.64,-0.08 4.74,-0.05 9.48,-0.08 14.22,-0.11 6.43,-0.04 6.44,-10.04 -0.01,-10 z"
               class="st0"
               inkscape:connector-curvature="0"
               style="fill:#e20000;fill-opacity:1" />
          </g>
        </g>
        <g
           id="g4849"
           style="fill:#e20000;fill-opacity:1">
          <g
             id="g4847"
             style="fill:#e20000;fill-opacity:1">
            <path
               id="path4845"
               d="m 899.34,1674.16 c 6.43,0 6.45,-10 0,-10 -6.43,0 -6.44,10 0,10 z"
               class="st0"
               inkscape:connector-curvature="0"
               style="fill:#e20000;fill-opacity:1" />
          </g>
        </g>
      </g>
      <path
         id="path4852"
         d="m 400.71,1838.64 c 18.88,-37.75 32.49,-63.08 113.29,-45.7 22.08,-74.33 44.21,-148.84 67.03,-225.67 -36.89,-10.92 -72.81,-21.06 -108.41,-32.25 -28.3,-8.89 -49.91,-25.71 -52.98,-57.39 -5.02,-51.76 35.35,-87.22 86.21,-75.01 18.3,4.39 25.59,3 31.58,-17.45 70.08,-239.26 141.47,-478.15 212.55,-717.12 2.83,-9.52 5.81,-19.02 9.18,-28.36 15.21,-42.21 50.4,-64.25 94.95,-59.76 6.8,0.69 13.63,1.08 20.07,1.59 23.72,-69.51 44.61,-81.06 115.41,-62.51 11.73,-39.14 23.57,-78.43 35.28,-117.75 32.23,-108.23 64.27,-216.52 96.68,-324.7 10.17,-33.95 30.52,-44.8 63.45,-35.03 22.38,6.64 31.84,31.73 22.93,61.89 -39.82,134.72 -79.76,269.41 -119.65,404.12 -3.63,12.27 -7.23,24.55 -10.78,36.62 73.52,31.2 86.95,57.18 59.76,116.93 30.35,9.09 54.36,27.69 63.21,58.01 5.32,18.22 6.64,40.43 1.45,58.45 -53.76,186.52 -109.15,372.56 -164.24,558.69 -19.15,64.68 -38.79,129.21 -58.04,193.86 -1.05,3.51 -0.59,7.47 -0.87,11.73 6.97,2.65 13.27,5.28 19.73,7.44 39.13,13.07 58.87,47.46 48.62,84.91 -9.71,35.49 -47.24,55.06 -86.99,44.4 -36.2,-9.71 -72.12,-20.49 -111.58,-31.77 -9.32,29.8 -18.94,59.29 -27.75,89.02 -11.57,39 -21.34,78.58 -34.25,117.12 -5.94,17.74 -3.7,24.32 15.25,28.51 27.47,6.08 44.06,26.39 49.74,52.95 5.75,26.91 -1.62,54.42 -26.4,66.33 -19.13,9.2 -45.01,11.47 -66.24,7.65 -39.9,-7.18 -78.69,-20.69 -117.79,-32.11 -56.84,-16.6 -113.29,-34.61 -170.41,-50.17 -33.44,-9.11 -58.7,-25.47 -69.96,-59.52 -0.03,-9.32 -0.03,-18.63 -0.03,-27.95 z"
         inkscape:connector-curvature="0"
         style="fill:black;fill-opacity:1" />
      <path
         id="path4854"
         d="m 1626.26,783.02 c 0.77,62.12 -44.97,121.55 -123.45,123.06 -69.93,1.34 -124.99,-49.44 -127.57,-120.14 -2.31,-63.08 2.52,-126.48 5.4,-189.68 1.09,-23.98 9.9,-27.66 30.1,-15.63 52.26,31.13 104.96,61.54 156.63,93.63 39.83,24.74 57.05,62.97 58.89,108.76 z"
         inkscape:connector-curvature="0"
         style="fill:black;fill-opacity:1" />
      <path
         id="path4856"
         d="m 1535.48,1365.49 c -69.29,5.1 -128.05,-66.78 -124.49,-128.54 3.51,-61.01 3.43,-122.22 5.43,-183.33 0.6,-18.39 11.92,-24.92 27.53,-15.67 54.98,32.58 110.72,64.08 163.99,99.3 42.81,28.31 61.51,72.28 53.64,122.56 -7.97,50.93 -38.89,86.27 -89.84,100.86 -11.59,3.32 -24.14,3.3 -36.26,4.82 z"
         inkscape:connector-curvature="0"
         style="fill:black;fill-opacity:1"
         inkscape:export-xdpi="592.25012"
         inkscape:export-ydpi="592.25012" />
    </g>
  </g>
  <style
     id="style4766"
     type="text/css" />
</svg>
